PathFileType	4	(X/Y/Z)	Run_500 03
DataRate	CameraRate	NumFrames	NumMarkers	Units	OrigDataRate	OrigDataStartFrame	OrigNumFrames
100	100	5	42	mm	100	80	128
Frame#	Time	RASI			LPSI			RPSI			RTH1			RTH2			RTH3			LTH1			LTH2			LTH3			RTB1			RTB2			RTB3			LTB1			LTB2			LTB3			RCAL			RTOE			RMT5			LCAL			LTOE			LMT5			LACR			RACR			CLAV			C7			RUA1			RUA2			RUA3			RLEL			RMEL			LUA1			LUA2			LUA3			LLEL			LMEL			RFAsuperior			RFAradius			RFAulna			LFAsuperior			LFAradius			LFAulna			LASI			
		X1	Y1	Z1	X2	Y2	Z2	X3	Y3	Z3	X4	Y4	Z4	X5	Y5	Z5	X6	Y6	Z6	X7	Y7	Z7	X8	Y8	Z8	X9	Y9	Z9	X10	Y10	Z10	X11	Y11	Z11	X12	Y12	Z12	X13	Y13	Z13	X14	Y14	Z14	X15	Y15	Z15	X16	Y16	Z16	X17	Y17	Z17	X18	Y18	Z18	X19	Y19	Z19	X20	Y20	Z20	X21	Y21	Z21	X22	Y22	Z22	X23	Y23	Z23	X24	Y24	Z24	X25	Y25	Z25	X26	Y26	Z26	X27	Y27	Z27	X28	Y28	Z28	X29	Y29	Z29	X30	Y30	Z30	X31	Y31	Z31	X32	Y32	Z32	X33	Y33	Z33	X34	Y34	Z34	X35	Y35	Z35	X36	Y36	Z36	X37	Y37	Z37	X38	Y38	Z38	X39	Y39	Z39	X40	Y40	Z40	X41	Y41	Z41	X42	Y42	Z42	

70	1.08	721.928121	972.011657	-194.620554	570.738519	1035.496033	-396.938758	556.20728	1041.728103	-315.270652	670.286784	845.609091	-137.687377	764.960246	725.837995	-144.082827	727.881746	607.216897	-168.578242	705.91401	821.84494	-509.675864	768.882761	708.7335409999999	-482.903866	695.10036	574.756306	-491.984283	791.882941	369.421482	-237.27481	711.25996	284.24789	-200.597671	706.66034	189.320991	-271.008681	608.724524	439.928884	-418.486851	542.858712	511.52573	-486.079561	414.196398	506.362423	-407.550745	540.211406	87.32052299999999	-312.768871	776.753639	67.596661	-272.138318	726.409227	52.328698	-187.003045	321.988656	665.667412	-389.581307	218.051546	456.831117	-398.282554	198.356199	503.092024	-474.275734	765.550786	1484.564579	-470.90794	698.4368930000001	1441.300867	-130.662568	793.4487779999999	1419.781905	-269.118594	666.577961	1504.638894	-322.010682	622.045512	1333.143892	-62.268648	547.569798	1263.372473	-100.461649	568.800493	1226.629683	-38.957344	536.922644	1136.143919	-12.113913	517.475656	1118.240109	-87.74298400000001	736.238704	1394.214505	-581.114549	660.774553	1321.5536	-591.799242	717.589557	1288.803017	-641.796561	719.39323	1205.531648	-683.4032999999999	646.736494	1185.160064	-657.70272	574.819886	1064.075905	0.462217	733.242402	939.548543	-30.577826	673.886107	899.393966	-19.942347	771.563266	1095.176936	-638.269957	816.811584	1005.558756	-514.428004	792.680748	970.876768	-570.167991	755.021568	943.536081	-442.693526	
71	1.09	719.9071709999999	969.215728	-194.326192	567.414176	1035.684188	-396.082207	553.8598030000001	1042.166261	-314.401815	663.039575	843.21014	-137.762895	751.519198	719.184622	-144.253734	708.1718	601.103775	-168.938318	706.075382	823.591304	-509.602917	781.924636	716.501817	-481.714655	720.730215	577.974011	-492.031695	759.1041	360.320501	-237.998892	674.433663	279.582529	-200.518543	662.627896	186.051822	-272.075178	644.63482	442.323909	-415.685504	576.050638	509.718978	-484.050545	447.630858	502.978218	-406.222701	490.674046	89.99528599999999	-311.132763	726.5463999999999	66.54118099999999	-271.007808	675.964759	52.090917	-185.795988	345.945011	660.04808	-392.49176	255.851268	444.929391	-398.332502	235.937419	487.470266	-476.044115	763.017115	1482.793089	-472.043686	701.4876819999999	1438.920802	-130.488744	793.986807	1418.0586	-270.688479	667.235384	1503.962026	-320.871837	630.96086	1328.167016	-60.919784	560.798259	1254.253172	-98.68729	582.302374	1219.925245	-35.698851	556.235899	1127.226788	-7.748546	535.820186	1107.595596	-83.01908	728.962097	1394.178727	-582.258598	650.865395	1324.141491	-589.25573	703.447613	1291.234399	-643.795417	702.151718	1208.368127	-686.7930229999999	630.1048050000001	1190.396913	-659.003899	598.530033	1056.977391	3.776985	762.399749	941.237258	-31.310875	705.497847	897.191745	-18.96308	749.149908	1092.780017	-647.7734809999999	791.200614	992.805933	-530.363238	763.235905	963.612923	-587.124056	751.400708	940.667295	-444.12626	
72	1.1	718.220456	966.364524	-194.19744	564.182179	1036.864952	-394.605272	552.030214	1043.286216	-312.841692	655.607615	841.311593	-138.033753	736.6233989999999	712.948112	-144.178856	686.386887	596.247193	-168.706494	703.380483	826.949323	-509.79615	794.259575	728.180663	-480.442475	746.791443	585.757539	-491.503892	723.300176	352.801824	-237.383203	634.616098	276.641156	-200.381942	617.132707	184.215097	-272.13894	680.920959	447.614623	-412.657775	608.2974840000001	509.573304	-481.544672	480.066648	498.634713	-404.295398	440.606986	93.64912099999999	-309.669522	675.552598	66.019527	-269.666198	624.772616	52.165977	-184.408285	366.37463	650.461375	-394.289956	294.886687	428.348308	-397.715545	274.364901	467.418495	-477.304037	759.864779	1482.898281	-473.780734	704.903754	1438.79973	-130.997219	794.4045180000001	1418.673783	-272.614592	667.084845	1504.170827	-320.509058	638.6387089999999	1326.218026	-60.592288	572.620299	1248.741025	-98.61318799999999	595.270056	1216.33068	-34.065468	575.253694	1122.445063	-4.431736	553.699358	1101.271664	-79.368622	720.4157269999999	1396.745609	-584.016763	639.862533	1329.172511	-587.643539	688.6936909999999	1296.634718	-646.3835759999999	683.993281	1214.677751	-691.088855	612.74686	1198.87987	-661.11499	622.109651	1054.546697	5.68652	791.434139	948.588154	-34.344432	737.8521500000001	900.757819	-19.454589	725.892511	1094.9049	-657.399747	764.705158	987.200163	-544.947758	733.237301	962.632234	-601.475938	748.1255190000001	938.142112	-445.773304	
73	1.11	717.105443	963.874676	-194.312007	560.961108	1039.225655	-393.134134	551.061059	1045.312916	-311.032671	647.928343	840.701897	-138.43145	720.589738	707.7351629999999	-143.909676	662.9608919999999	593.6981019999999	-168.398872	699.7423	831.398788	-510.005152	804.723539	743.515966	-479.330959	771.693028	597.800913	-490.249719	685.465154	348.003095	-235.40763	592.759394	276.521691	-200.163323	571.247509	184.517973	-270.790342	715.84081	455.681772	-408.88662	639.183813	511.55589	-479.119211	511.458309	493.25288	-401.854895	391.268639	99.456458	-308.671831	624.624447	65.656301	-268.563534	573.489201	52.114097	-183.619172	384.363969	636.383744	-394.403883	335.246851	408.02195	-396.988146	313.481168	444.4167	-478.078651	756.086215	1485.057917	-475.746864	708.793705	1440.946864	-131.735836	794.952006	1421.172683	-274.828991	665.985587	1505.54186	-320.732421	645.6579850000001	1326.837948	-60.900727	582.0738	1246.184884	-97.873182	608.04284	1215.206002	-33.602303	593.382157	1120.923406	-2.361682	570.7175999999999	1098.479967	-76.827314	710.741129	1402.063814	-585.984706	627.826652	1336.456877	-587.180585	674.012255	1304.774174	-649.454509	665.393504	1223.911996	-695.876769	594.8811490000001	1210.440914	-663.914098	644.852446	1056.150156	6.073919	819.299242	961.358402	-39.717142	769.917594	910.202465	-21.525971	702.041142	1100.954857	-666.595014	738.15102	988.324405	-557.312236	703.489467	967.202636	-612.729072	745.187871	937.61816	-447.478127	
74	1.12	716.91711	962.370659	-194.899083	558.161603	1043.258431	-391.915521	551.33859	1048.489819	-309.208574	640.530201	841.667582	-138.862405	703.7062969999999	704.191212	-143.70128	638.149449	593.898714	-168.596697	697.839011	837.32139	-510.23327	813.108059	761.498027	-478.65682	794.2754179999999	613.307251	-488.385135	646.6409640000001	346.478261	-233.098989	550.338255	279.489484	-199.765287	525.8441	187.370229	-268.733706	748.541707	466.089393	-404.545701	668.414807	515.410716	-476.776832	542.208985	486.545487	-398.841896	343.580376	108.286179	-307.816741	574.1398840000001	64.976421	-267.881268	522.5224930000001	51.903205	-183.657158	401.064477	617.53369	-392.568885	377.16359	384.943657	-396.356025	353.177298	419.229245	-478.010758	751.806544	1489.189588	-477.777299	713.0727010000001	1445.242669	-132.763916	795.710616	1425.294628	-277.681659	664.63715	1508.485396	-321.322826	652.947826	1329.716921	-61.530236	589.424636	1246.738709	-95.34106300000001	620.751207	1216.476546	-33.697269	610.326639	1122.035451	-1.592537	586.7859529999999	1098.55176	-75.497591	700.572134	1409.907451	-587.862985	615.544588	1346.350592	-588.046069	659.827445	1315.346333	-652.865648	646.780303	1235.610528	-700.661924	576.790263	1224.780703	-667.034852	666.288019	1061.113844	5.026829	845.170724	978.778383	-46.889234	800.686875	924.754545	-25.247171	678.078699	1110.451829	-674.553301	712.485754	995.307489	-567.085732	674.667955	976.497737	-620.794987	743.007431	940.78755	-449.187791	
